<svg width="100" height="100" viewBox="0 0 100 100" fill="none" xmlns="http://www.w3.org/2000/svg">
<g opacity="0.4">
<path d="M85.2135 85.3118C84.2225 86.3057 83.2175 87.2857 82.0793 88.1102C74.853 94.2094 65.8333 98.2125 56.4278 99.3036C60.7918 98.4152 65.0893 97.0382 69.0175 94.9367C71.0774 93.8318 73.1262 92.6825 75.0168 91.2972C84.3335 84.4595 91.3682 74.3489 93.6696 63.0194C93.9778 61.5009 94.2221 59.9657 94.4275 58.4305C96.1876 45.3771 91.7624 31.6685 82.976 21.841C82.0904 20.6806 80.9771 19.7311 79.9416 18.7095C66.0027 4.94542 42.6165 1.33088 24.0774 11.5637C6.5128 21.258 2.60123 36.9571 1.89609 38.3396C2.12651 34.9804 5.36626 25.1501 13.7807 15.8667C25.0657 3.41576 42.8635 -1.99215 58.7847 0.814522C67.0215 2.26644 74.878 5.81157 81.3991 11.0612C104.655 29.7863 106.304 64.1799 85.2191 85.3146L85.2135 85.3118Z" fill="#25F4EE"/>
<path d="M34.0799 22.1213C46.8501 21.7882 59.2511 24.2145 69.9559 31.1882C73.7786 33.6784 78.3065 37.2263 79.7418 41.2073C79.9028 41.8486 80.0999 42.7425 79.4864 43.2005C79.0311 43.542 78.5591 43.8752 78.0428 44.1111C80.0249 45.527 88.2784 49.1831 88.9391 54.4772C89.2473 56.9535 87.9453 59.3938 86.0297 60.9068C84.6111 62.0283 82.8927 62.9028 81.0438 62.789C81.3353 62.1477 81.6406 61.4759 81.6046 60.7513C81.624 57.5504 76.5076 55.4017 73.5232 54.2218C66.7161 51.529 59.2816 50.6212 51.9804 50.7877C41.8086 51.0182 31.3648 53.017 22.6338 58.3971C20.0409 59.9962 17.5896 61.8479 15.4242 64.0049C14.8968 64.5296 14.3054 64.9821 13.7696 65.4985C13.2338 66.0148 12.8119 66.584 12.1595 66.906C12.1012 66.0926 12.3677 65.3125 12.5565 64.5352C13.9307 58.8746 18.7167 52.2147 21.6733 48.1199C22.4312 47.0705 23.3834 46.1988 24.2246 45.2271C25.2851 44.0001 26.6565 43.0728 27.6642 41.7986L27.6309 41.5432C24.2329 41.2933 20.8016 41.4766 17.4508 42.1012C12.2206 43.0784 7.22629 45.1522 2.69286 47.9283C1.73787 48.4003 1.00496 49.2331 0 49.6023C1.89888 45.7796 6.44064 40.8908 9.52771 38.3118C14.9079 33.8117 21.3735 30.5747 28.2389 29.2977C31.226 28.7424 34.2714 28.3454 37.3168 28.537C36.9421 28.1456 36.4562 27.8902 35.9343 27.7541C34.1687 27.2961 32.3531 27.0601 30.5431 26.8408C25.1768 25.8747 16.0822 26.1412 14.4914 26.1301C16.8206 25.0363 27.6975 22.2907 34.0854 22.1241L34.0799 22.1213ZM63.5319 34.3391C64.287 35.3635 65.1337 36.3185 66.0138 37.2402C66.7661 38.0314 67.7294 38.7004 68.8426 38.8115C69.9004 38.917 70.9303 39.1557 71.9547 39.4333C71.8881 39.0724 71.777 38.7199 71.5327 38.4395C70.1974 36.9181 68.4457 35.8715 66.6689 34.9582C65.6779 34.5779 64.6174 34.1392 63.5347 34.3391H63.5319Z" fill="#25F4EE"/>
<path d="M26.7481 80.8838C26.204 83.1464 26.2206 85.5172 26.5954 87.8103C25.4461 87.6077 24.6327 86.7054 23.8887 85.8781C22.5728 84.4068 21.7871 82.6967 21.4512 80.8727H21.8732C23.4972 80.845 25.1241 80.8755 26.7509 80.8838H26.7481Z" fill="#25F4EE"/>
<path d="M46.3171 57.4449C45.2344 58.3083 43.9379 58.8135 42.7636 59.527C40.143 61.1122 37.8971 63.2165 35.7622 65.3791C33.5524 67.6222 31.6674 70.1596 30.1905 72.6415C28.5859 72.6387 26.2567 72.6387 22.967 72.6359C22.8226 72.647 22.67 72.647 22.5145 72.6442C23.8387 69.374 26.1263 66.2952 28.9468 64.0299C34.4325 59.6214 41.742 57.4144 46.3171 57.4449Z" fill="#25F4EE"/>
<path d="M58.4932 72.6667C57.3383 73.9104 56.1668 75.1375 54.9869 76.3645C54.9064 76.4506 54.8231 76.5394 54.7371 76.6255C53.5433 77.8664 52.3441 79.1046 51.1559 80.3566C50.7006 80.9563 49.9066 80.9452 49.232 80.9785C47.3054 80.984 45.3787 80.9924 43.4521 80.984C41.9086 80.984 40.3706 80.9674 38.827 80.9424C38.8243 80.9424 38.8215 80.9424 38.8187 80.9396C38.369 80.934 37.922 80.9257 37.4751 80.9146C36.4451 80.8952 35.4179 80.8647 34.3936 80.8258C36.7283 78.6243 39.0186 76.3784 41.2867 74.1131C41.9669 73.4996 42.5804 72.4946 43.6298 72.6417C45.7674 72.65 47.9078 72.6445 50.0426 72.6417C50.5229 72.6389 51.006 72.639 51.4862 72.639H52.1997C54.3012 72.639 56.4 72.6445 58.4988 72.6667H58.4932Z" fill="#25F4EE"/>
<path d="M54.5844 75.8259C54.1541 75.2485 53.721 74.6738 53.288 74.0992C52.9215 73.6133 52.5578 73.1275 52.1942 72.6389H51.4807C51.0004 72.6389 50.5174 72.6389 50.0371 72.6417C49.1987 72.997 48.3548 73.3496 47.5136 73.7022C46.3865 74.1769 45.2566 74.6488 44.1295 75.1263L43.4438 75.4178L43.9157 75.9953C44.1961 76.3395 44.4765 76.681 44.7541 77.0252C44.8069 77.0891 44.8568 77.1529 44.9068 77.2168C44.7291 77.264 44.5487 77.3139 44.371 77.3639C43.8963 77.4944 43.4216 77.6248 42.9496 77.7637C42.4694 77.8997 41.9752 78.0246 41.4977 78.1468L40.143 78.4938L40.6732 79.1656C40.7537 79.2655 40.8314 79.3683 40.9092 79.4738C40.6843 79.5682 40.4567 79.6598 40.229 79.7514C39.6821 79.9735 39.1324 80.2011 38.5883 80.4343L37.4668 80.9173C37.9165 80.9284 38.3635 80.9368 38.8104 80.9423H38.8076L38.8187 80.9451C40.3623 80.9701 41.9002 80.984 43.4438 80.9867L43.7519 80.9534L43.441 80.5481C44.2516 80.3871 45.0706 80.2317 45.8646 80.0817C46.5697 79.9513 47.2749 79.818 47.9828 79.6764L48.8517 79.5071L48.3215 78.7964C48.0688 78.4577 47.8134 78.1218 47.5608 77.7803C48.5213 77.6276 49.4763 77.4722 50.4369 77.3195C51.7 77.1196 52.9632 76.9169 54.2263 76.7115L54.7343 76.6282C54.8204 76.5422 54.9037 76.4533 54.9842 76.3673L54.5816 75.8287L54.5844 75.8259ZM52.3996 74.7682C52.6467 75.0986 52.8938 75.4262 53.1408 75.7565C52.1803 75.912 51.2253 76.0647 50.2648 76.2173C49.0016 76.4172 47.7385 76.6227 46.4726 76.8281L46.0839 76.8919C45.9284 76.7032 45.773 76.5088 45.6203 76.3201C45.4954 76.1701 45.3732 76.0147 45.2483 75.8648C46.1477 75.4845 47.0444 75.1097 47.9439 74.7321C49.0405 74.2713 50.137 73.8132 51.2336 73.3524L51.1115 73.0637C51.1448 73.0997 51.1753 73.1414 51.2059 73.1802C51.6001 73.7105 51.9971 74.2407 52.3968 74.7682H52.3996ZM45.6675 78.9824C44.6098 79.1795 43.5187 79.3849 42.4472 79.6098L42.2362 79.3516C42.1834 79.285 42.1307 79.2183 42.0779 79.1489C42.4694 79.0518 42.8664 78.9491 43.2606 78.8325C43.7297 78.6992 44.2017 78.5687 44.6681 78.4355C45.1234 78.3106 45.5814 78.1856 46.0311 78.0551L46.3115 77.9746L46.4892 78.2106C46.6252 78.3883 46.7585 78.5687 46.8973 78.7492C46.4837 78.8269 46.0756 78.9019 45.6647 78.9796L45.6675 78.9824ZM51.1059 72.9748L51.0837 72.9943L51.0226 72.8499L51.1059 72.9748Z" fill="#25F4EE"/>
<path d="M47.88 79.1294C46.0783 79.4875 44.2655 79.7956 42.4638 80.1815C42.5443 80.287 42.6248 80.3953 42.7053 80.5063C41.4116 80.6451 40.1179 80.8117 38.8215 80.9449H38.8104H38.8132C39.8042 80.5174 40.8092 80.1288 41.8003 79.7068C41.5671 79.4153 41.3422 79.1155 41.1118 78.8184C41.7753 78.6491 42.4444 78.4881 43.1051 78.2993C44.0268 78.0328 44.954 77.7885 45.8784 77.522C45.3649 76.8973 44.8596 76.2671 44.346 75.6425C46.5669 74.7042 48.7934 73.7797 51.0171 72.8414L51.0226 72.8525C51.1614 72.7609 51.3335 72.722 51.4807 72.6443H51.4835C51.5445 72.7109 51.5973 72.7803 51.6528 72.8525C52.4773 73.9574 53.3129 75.0568 54.1374 76.1617C51.6139 76.5753 49.0849 76.9667 46.5614 77.3804C47.0028 77.9634 47.4414 78.5464 47.8773 79.1321L47.88 79.1294Z" fill="#25F4EE"/>
<path d="M61.5886 72.9552C61.8912 72.5499 62.427 72.6776 62.8656 72.636C66.7772 72.6471 70.686 72.6415 74.5976 72.6415C72.7237 74.732 70.7221 76.7058 68.776 78.7296C68.0709 79.4181 67.438 80.1871 66.6551 80.7923C65.1532 81.1809 63.5791 80.9089 62.0467 80.9838C59.3705 80.9061 56.6776 81.1698 54.0153 80.7978C56.5361 78.1799 59.0568 75.562 61.5886 72.9552Z" fill="#25F4EE"/>
<path d="M77.0212 73.5856C77.4459 73.183 77.8512 72.5695 78.5203 72.65C81.5962 72.6528 84.6777 72.6195 87.7537 72.6778C85.7021 74.9681 83.4646 77.0863 81.4019 79.3627C80.8939 79.8735 80.4441 80.4759 79.8056 80.8313C78.6508 81.1089 77.4487 80.9507 76.2744 80.9867C74.2089 80.9423 72.1407 81.0978 70.0836 80.8563C72.3267 78.3689 74.7697 76.0674 77.0212 73.5856Z" fill="#25F4EE"/>
<path d="M54.6066 35.2469C55.3756 35.2469 55.4256 35.2413 56.1946 35.2469C56.6832 36.5655 57.1967 37.8759 57.6965 39.1918C57.7409 39.275 57.6881 39.3472 57.627 39.4027C56.4194 40.6242 55.2424 41.8763 54.0403 43.1061C53.8682 43.2727 53.7182 43.4642 53.5295 43.6114C52.7272 43.6336 52.6411 43.6141 51.836 43.6225C53.2213 42.1622 54.6288 40.7214 56.0308 39.275C56.0835 39.2306 56.1057 39.1723 56.0724 39.1085C55.5921 37.8176 55.0841 36.5378 54.6066 35.2496V35.2469Z" fill="#25F4EE"/>
<path d="M51.7722 35.2469C52.5412 35.2469 52.5911 35.2413 53.3601 35.2469C53.8487 36.5655 54.3623 37.8759 54.862 39.1918C54.9064 39.275 54.8537 39.3472 54.7926 39.4027C53.585 40.6242 52.4079 41.8763 51.2058 43.1061C51.0337 43.2727 50.8838 43.4642 50.695 43.6114C49.8927 43.6336 49.8067 43.6141 49.0016 43.6225C50.3869 42.1622 51.7944 40.7214 53.1963 39.275C53.2491 39.2306 53.2713 39.1723 53.238 39.1085C52.7577 37.8176 52.2497 36.5378 51.7722 35.2496V35.2469Z" fill="#25F4EE"/>
<path d="M25.5321 73.3243C26.1456 73.3243 26.1873 73.3188 26.8036 73.3243C27.195 74.3792 27.6031 75.4258 28.0029 76.4752C28.039 76.5418 27.9973 76.5974 27.9473 76.6446C26.9812 77.6218 26.0401 78.6212 25.0796 79.6039C24.9408 79.7372 24.8242 79.8899 24.6715 80.0065C24.0302 80.0231 23.9608 80.0065 23.3195 80.0148C24.4272 78.8488 25.5515 77.6967 26.6703 76.5391C26.712 76.5058 26.7286 76.4558 26.7036 76.4058C26.3205 75.3759 25.9152 74.3515 25.5321 73.3215V73.3243Z" fill="#25F4EE"/>
<path d="M23.5444 73.3243C24.1579 73.3243 24.1996 73.3188 24.8159 73.3243C25.2073 74.3792 25.6154 75.4258 26.0152 76.4752C26.0513 76.5418 26.0096 76.5974 25.9596 76.6446C24.9935 77.6218 24.0524 78.6212 23.0919 79.6039C22.9531 79.7372 22.8365 79.8899 22.6838 80.0065C22.0425 80.0231 21.9731 80.0065 21.3318 80.0148C22.4395 78.8488 23.5638 77.6967 24.6826 76.5391C24.7243 76.5058 24.7409 76.4558 24.7159 76.4058C24.3328 75.3759 23.9275 74.3515 23.5444 73.3215V73.3243Z" fill="#25F4EE"/>
</g>
<path d="M85.0387 85.1369C84.0531 86.1253 83.0509 87.1025 81.9183 87.9214C74.7281 93.9901 65.7528 97.9738 56.3945 99.0593C60.7364 98.1765 65.0144 96.8051 68.9204 94.7146C70.972 93.6153 73.0097 92.4715 74.8919 91.0918C84.1642 84.2875 91.1628 74.2267 93.4531 62.9528C93.7613 61.4398 94.0028 59.9157 94.2083 58.3861C95.96 45.3965 91.5543 31.7546 82.8122 21.977C81.9294 20.8222 80.8217 19.8783 79.7918 18.8594C65.9222 5.16197 42.6498 1.56688 24.1996 11.747C6.72104 21.3913 2.82889 37.0154 2.12653 38.3896C2.35695 35.0471 5.58004 25.264 13.9529 16.0278C25.1824 3.63788 42.8941 -1.74228 58.7348 1.05052C66.9327 2.49411 74.7503 6.02258 81.2381 11.2473C104.38 29.8807 106.021 64.1049 85.0387 85.1369Z" fill="url(#paint0_linear_4_1060)"/>
<path d="M34.1548 22.2546C46.864 21.9242 59.2039 24.3367 69.8559 31.277C73.6593 33.7561 78.1649 37.2873 79.5946 41.2461C79.7557 41.8819 79.95 42.773 79.342 43.2283C78.8867 43.567 78.4203 43.9001 77.904 44.1361C79.875 45.5436 88.0896 49.1831 88.7476 54.4522C89.0557 56.9174 87.7593 59.3438 85.8548 60.8512C84.4418 61.9672 82.7317 62.8389 80.8939 62.7251C81.1854 62.0866 81.488 61.4203 81.4519 60.6985C81.4713 57.5143 76.3799 55.3767 73.4094 54.1996C66.6356 51.5178 59.2372 50.6184 51.9721 50.7821C41.8503 51.0098 31.4564 53.0003 22.7671 58.3527C20.1853 59.9434 17.7478 61.7868 15.5936 63.9327C15.0689 64.4546 14.4803 64.9044 13.9473 65.418C13.4143 65.9315 12.9951 66.4979 12.3455 66.8171C12.2872 66.0093 12.5537 65.2319 12.7425 64.4574C14.1111 58.8246 18.8722 52.1952 21.8149 48.1226C22.5672 47.0788 23.5167 46.2098 24.3551 45.2437C25.41 44.0222 26.7758 43.1006 27.778 41.8319L27.7447 41.5793C24.3634 41.3322 20.9487 41.5126 17.6146 42.1345C12.4093 43.1061 7.44005 45.1716 2.92883 47.9338C1.97939 48.403 1.24926 49.2331 0.249847 49.5995C2.1404 45.7962 6.65996 40.9296 9.73036 38.3617C15.0855 33.8838 21.5178 30.6635 28.3499 29.392C31.3232 28.8396 34.3519 28.4454 37.3835 28.6341C37.0115 28.2455 36.5256 27.9901 36.0065 27.854C34.2492 27.3987 32.4419 27.1628 30.643 26.9435C25.3017 25.9829 16.2515 26.2466 14.6719 26.2355C16.99 25.1445 27.8141 22.4156 34.1687 22.249L34.1548 22.2546ZM63.4625 34.414C64.2148 35.4329 65.056 36.3851 65.9305 37.3012C66.68 38.0869 67.6378 38.7531 68.7455 38.8642C69.8532 38.9752 70.8248 39.2057 71.8437 39.4833C71.7798 39.1251 71.666 38.7726 71.4217 38.495C70.0947 36.9792 68.3485 35.9381 66.5801 35.0303C65.5918 34.65 64.5396 34.2142 63.4625 34.414Z" fill="#FE2C55"/>
<path d="M26.8592 80.7313C26.3178 82.9827 26.3345 85.3424 26.7065 87.6244C25.5627 87.4218 24.7521 86.5251 24.0136 85.7006C22.7033 84.2375 21.9232 82.5358 21.5873 80.7202H22.0065C23.6222 80.6924 25.2407 80.7229 26.8592 80.7313Z" fill="#FE2C55"/>
<path d="M46.331 57.409C45.2538 58.2668 43.9629 58.7721 42.7942 59.48C40.1874 61.0569 37.9526 63.1501 35.8261 65.3043C33.6274 67.5364 31.7507 70.0626 30.2821 72.5306C28.6858 72.5279 26.3678 72.5279 23.0947 72.5251C22.9503 72.5362 22.8004 72.5362 22.645 72.5334C23.9636 69.2798 26.2401 66.2149 29.0467 63.9607C34.5046 59.5744 41.7781 57.3785 46.331 57.409Z" fill="#FE2C55"/>
<path d="M58.4488 72.5554C57.2995 73.7936 56.1335 75.0151 54.9592 76.2338C54.8787 76.3199 54.7954 76.4087 54.7094 76.4948C53.5212 77.7302 52.3274 78.9628 51.1448 80.2065C50.6923 80.8033 49.9011 80.7923 49.2293 80.8256C47.3109 80.8311 45.3954 80.8394 43.4771 80.8311C41.9419 80.8311 40.4095 80.8145 38.8743 80.7895C38.8715 80.7895 38.8687 80.7895 38.8659 80.7867C38.419 80.7811 37.9748 80.7728 37.5278 80.7617C36.5034 80.7423 35.4818 80.7117 34.4602 80.6729C36.7838 78.4825 39.063 76.2477 41.32 73.9935C41.9974 73.3827 42.6082 72.3833 43.652 72.5305C45.7785 72.5388 47.9078 72.5332 50.0343 72.5305C50.5118 72.5277 50.9921 72.5277 51.4696 72.5277H52.1803C54.2707 72.5277 56.3611 72.5332 58.4488 72.5554Z" fill="#25F4EE"/>
<path d="M54.5594 75.6979C54.1319 75.1233 53.7016 74.5514 53.2685 73.9795C52.9049 73.4965 52.5412 73.0134 52.1803 72.5276H51.4696C50.9921 72.5276 50.5118 72.5276 50.0343 72.5304C49.1987 72.8829 48.3603 73.2355 47.5219 73.5853C46.4004 74.0572 45.276 74.5264 44.1545 75.0011L43.4716 75.2898L43.9407 75.8645C44.2211 76.206 44.4987 76.5474 44.7763 76.8889C44.8291 76.9528 44.8791 77.0166 44.929 77.0805C44.7514 77.1277 44.5737 77.1776 44.396 77.2276C43.9241 77.3581 43.4521 77.4885 42.9829 77.6246C42.5055 77.7606 42.0141 77.8855 41.5394 78.0049L40.1902 78.3491L40.7176 79.0182C40.7981 79.1181 40.8759 79.2208 40.9536 79.3236C40.7287 79.418 40.5039 79.5096 40.2762 79.6012C39.7321 79.8233 39.1852 80.0481 38.6438 80.2813L37.5278 80.7616C37.9748 80.7727 38.419 80.781 38.8659 80.7866H38.8632L38.8743 80.7894C40.4095 80.8144 41.9419 80.8282 43.4771 80.831L43.7825 80.7977L43.4743 80.3952C44.2822 80.2342 45.0956 80.0815 45.8868 79.9315C46.5891 79.8011 47.2915 79.6678 47.9939 79.529L48.8572 79.3597L48.3298 78.6517C48.0772 78.3158 47.8245 77.9799 47.5719 77.6412C48.5269 77.4885 49.4791 77.3359 50.4341 77.1832C51.6917 76.9833 52.9493 76.7834 54.2041 76.578L54.7094 76.4947C54.7954 76.4086 54.8787 76.3198 54.9592 76.2337L54.5594 75.6979ZM52.3829 74.6458C52.63 74.9734 52.8743 75.3009 53.1214 75.6285C52.1664 75.784 51.2142 75.9339 50.2592 76.0866C49.0016 76.2865 47.744 76.4891 46.4864 76.6946L46.1005 76.7584C45.9451 76.5696 45.7924 76.3781 45.6397 76.1893C45.5148 76.0394 45.3926 75.8867 45.2705 75.7368C46.1644 75.3592 47.0583 74.9845 47.9522 74.6097C49.0432 74.1516 50.1343 73.6963 51.2253 73.2355L51.1032 72.9496C51.1365 72.9857 51.167 73.0273 51.1975 73.0662C51.589 73.5936 51.986 74.1211 52.3829 74.6458ZM45.6841 78.8405C44.632 79.0376 43.5465 79.2403 42.4805 79.4652L42.2695 79.207C42.2167 79.1403 42.164 79.0737 42.1112 79.0043C42.4999 78.9072 42.8969 78.8044 43.2883 78.6906C43.7547 78.5574 44.2239 78.4269 44.6903 78.2964C45.1428 78.1715 45.5981 78.0465 46.0478 77.9188L46.3282 77.8383L46.5059 78.0743C46.6419 78.252 46.7751 78.4296 46.9112 78.6101C46.5003 78.6878 46.0922 78.7628 45.6841 78.8405ZM51.0976 72.8607L51.0754 72.8802L51.0143 72.7358L51.0976 72.8607Z" fill="#25F4EE"/>
<path d="M47.8856 78.9849C46.0922 79.3402 44.2877 79.6484 42.4971 80.0315C42.5776 80.137 42.6581 80.2453 42.7386 80.3535C41.4505 80.4923 40.1652 80.6561 38.8743 80.7894H38.8632H38.8659C39.8515 80.3646 40.8509 79.976 41.8392 79.5568C41.606 79.2681 41.3839 78.9682 41.1535 78.674C41.8142 78.5046 42.4805 78.3464 43.1356 78.1576C44.0518 77.8911 44.9762 77.6496 45.8951 77.383C45.3843 76.7612 44.8818 76.1338 44.371 75.5119C46.5808 74.5792 48.7962 73.6575 51.0088 72.7247L51.0143 72.7358C51.1531 72.6442 51.3225 72.6053 51.4696 72.5276H51.4724C51.5335 72.5942 51.5862 72.6636 51.6417 72.7358C52.4635 73.8351 53.2935 74.9289 54.1153 76.0283C51.6028 76.4392 49.0877 76.8306 46.5753 77.2415C47.0139 77.8217 47.4497 78.4019 47.8856 78.9849Z" fill="white"/>
<path d="M61.5275 72.8414C61.8274 72.4388 62.3632 72.5638 62.799 72.5249C66.6912 72.536 70.5805 72.5305 74.4727 72.5305C72.6071 74.6098 70.6166 76.5753 68.6789 78.588C67.9765 79.2737 67.3463 80.0371 66.569 80.6395C65.0754 81.0254 63.5069 80.7561 61.9828 80.8311C59.3205 80.7534 56.6388 81.0171 53.9903 80.6451C56.5 78.0411 59.0068 75.4343 61.5275 72.8414Z" fill="#FE2C55"/>
<path d="M76.8851 73.4688C77.3071 73.069 77.7124 72.4582 78.3759 72.5388C81.438 72.5388 84.5029 72.5082 87.5649 72.5665C85.5245 74.8457 83.298 76.9528 81.2437 79.2181C80.7384 79.7262 80.2915 80.3258 79.6557 80.6784C78.5064 80.956 77.3099 80.7978 76.1411 80.8339C74.0868 80.7894 72.0269 80.9449 69.9809 80.7034C72.2129 78.2271 74.6448 75.9368 76.8851 73.4688Z" fill="#25F4EE"/>
<path d="M54.5817 35.3165C55.3479 35.3165 55.3978 35.3109 56.1641 35.3165C56.6499 36.6296 57.1607 37.9316 57.6576 39.242C57.702 39.3252 57.6493 39.3946 57.5882 39.4502C56.3861 40.6661 55.2146 41.9126 54.0181 43.1369C53.846 43.3034 53.6988 43.495 53.5101 43.6394C52.7105 43.6616 52.6245 43.6421 51.825 43.6477C53.2047 42.1958 54.6039 40.7605 55.9975 39.3225C56.0502 39.278 56.0724 39.2197 56.0391 39.1559C55.5616 37.8733 55.0564 36.5991 54.5789 35.3137L54.5817 35.3165Z" fill="white"/>
<path d="M51.7611 35.3165C52.5273 35.3165 52.5773 35.3109 53.3435 35.3165C53.8293 36.6296 54.3401 37.9316 54.8371 39.242C54.8815 39.3252 54.8287 39.3946 54.7677 39.4502C53.5656 40.6661 52.394 41.9126 51.1975 43.1369C51.0254 43.3034 50.8783 43.495 50.6895 43.6394C49.89 43.6616 49.8039 43.6421 49.0044 43.6477C50.3841 42.1958 51.7833 40.7605 53.1769 39.3225C53.2297 39.278 53.2519 39.2197 53.2186 39.1559C52.7411 37.8733 52.2358 36.5991 51.7583 35.3137L51.7611 35.3165Z" fill="white"/>
<path d="M25.6487 73.2107C26.2595 73.2107 26.3011 73.2052 26.9119 73.2107C27.3005 74.2601 27.7086 75.3011 28.1056 76.3478C28.1417 76.4144 28.1001 76.4699 28.0501 76.5143C27.0896 77.486 26.154 78.4826 25.1962 79.4598C25.0602 79.593 24.9408 79.7457 24.7881 79.8623C24.1496 79.879 24.0802 79.8623 23.4417 79.8707C24.5438 78.7102 25.6626 77.5637 26.7759 76.4144C26.8175 76.3811 26.8342 76.3311 26.8092 76.2811C26.4261 75.2567 26.0235 74.2379 25.6432 73.2107H25.6487Z" fill="#FE2C55"/>
<path d="M23.6721 73.2107C24.2829 73.2107 24.3245 73.2052 24.9353 73.2107C25.3239 74.2601 25.732 75.3011 26.129 76.3478C26.1651 76.4144 26.1234 76.4699 26.0735 76.5143C25.1129 77.486 24.1774 78.4826 23.2196 79.4598C23.0836 79.593 22.9642 79.7457 22.8115 79.8623C22.173 79.879 22.1036 79.8623 21.4651 79.8707C22.5672 78.7102 23.686 77.5637 24.7992 76.4144C24.8409 76.3811 24.8575 76.3311 24.8325 76.2811C24.4494 75.2567 24.0469 74.2379 23.6666 73.2107H23.6721Z" fill="#FE2C55"/>
<defs>
<linearGradient id="paint0_linear_4_1060" x1="58.3588" y1="0.98515" x2="42.5688" y2="96.7796" gradientUnits="userSpaceOnUse">
<stop stop-color="white"/>
<stop offset="0.22" stop-color="#FED5DD"/>
<stop offset="0.7" stop-color="#FE6E8A"/>
<stop offset="1" stop-color="#FE2C55"/>
</linearGradient>
</defs>
</svg>
